<svg width="11" height="11" viewBox="0 0 11 11" fill="none" xmlns="http://www.w3.org/2000/svg">
<path d="M3 2.25H10C10.1989 2.25 10.3896 2.32907 10.5303 2.46973C10.6709 2.61038 10.75 2.80109 10.75 3V8C10.75 8.19891 10.6709 8.38962 10.5303 8.53027C10.3896 8.67093 10.1989 8.75 10 8.75H7.84668L7.77344 8.82324L5.93262 10.6689C5.86855 10.7266 5.80602 10.75 5.75 10.75H5.5C5.4337 10.75 5.37013 10.7236 5.32324 10.6768C5.27636 10.6299 5.25 10.5663 5.25 10.5V8.75H3C2.80109 8.75 2.61038 8.67093 2.46973 8.53027C2.32907 8.38962 2.25 8.19891 2.25 8V3C2.25 2.80109 2.32907 2.61038 2.46973 2.46973C2.61038 2.32907 2.80109 2.25 3 2.25ZM1 0.25H8.75V0.75H0.75V6.75H0.25V1C0.25 0.850846 0.294446 0.706283 0.375977 0.583984L0.469727 0.469727C0.575103 0.36435 0.708554 0.293524 0.852539 0.264648L1 0.25Z" fill="#F17B3C" stroke="#F17B3C" stroke-width="0.5"/>
</svg>
