<svg width="11" height="11" viewBox="0 0 11 11" fill="none" xmlns="http://www.w3.org/2000/svg">
<path d="M7.97461 0.25C9.51096 0.25 10.7499 1.5623 10.75 3.29688C10.75 4.35143 10.3155 5.32725 9.51074 6.40039C8.90472 7.20849 8.10036 8.05646 7.13672 9.02246L6.12207 10.0312H6.12109L5.5 10.6475L4.87891 10.0312H4.87793C3.45711 8.62701 2.29728 7.47784 1.48926 6.40039C0.684472 5.32725 0.25 4.35143 0.25 3.29688C0.250061 1.5623 1.48904 0.25 3.02539 0.25C3.89831 0.250133 4.74698 0.6944 5.30371 1.40137L5.5 1.65137L5.69629 1.40137C6.25302 0.6944 7.10169 0.250133 7.97461 0.25Z" fill="#F17B3C" stroke="#F17B3C" stroke-width="0.5"/>
</svg>
