<svg width="34" height="34" viewBox="0 0 34 34" fill="none" xmlns="http://www.w3.org/2000/svg">
<path d="M17.1418 31.1666C15.1585 31.1666 13.2994 30.7888 11.5644 30.0333C9.82947 29.2777 8.31836 28.2568 7.03108 26.9704C5.7438 25.6841 4.72239 24.173 3.96683 22.4371C3.21127 20.7012 2.8335 18.8416 2.8335 16.8583C2.8335 13.411 3.93141 10.3713 6.12725 7.73917C8.32308 5.107 11.121 3.4717 14.521 2.83325C14.096 5.17075 14.2259 7.45536 14.9106 9.68709C15.5953 11.9188 16.7759 13.8724 18.4522 15.5478C20.1286 17.2233 22.0827 18.4038 24.3144 19.0895C26.5461 19.7752 28.8303 19.905 31.1668 19.4791C30.5529 22.8791 28.9238 25.677 26.2793 27.8728C23.6349 30.0687 20.5891 31.1666 17.1418 31.1666Z" fill="#2F2F2F"/>
</svg>
