<svg width="10" height="12" viewBox="0 0 10 12" fill="none" xmlns="http://www.w3.org/2000/svg">
<path d="M5 9.14286C5.33152 9.14286 5.64946 9.02245 5.88388 8.80812C6.1183 8.59379 6.25 8.30311 6.25 8C6.25 7.6969 6.1183 7.40621 5.88388 7.19188C5.64946 6.97755 5.33152 6.85714 5 6.85714C4.66848 6.85714 4.35054 6.97755 4.11612 7.19188C3.8817 7.40621 3.75 7.6969 3.75 8C3.75 8.30311 3.8817 8.59379 4.11612 8.80812C4.35054 9.02245 4.66848 9.14286 5 9.14286ZM8.75 4C9.08152 4 9.39946 4.12041 9.63388 4.33474C9.8683 4.54906 10 4.83975 10 5.14286V10.8571C10 11.1602 9.8683 11.4509 9.63388 11.6653C9.39946 11.8796 9.08152 12 8.75 12H1.25C0.918479 12 0.600537 11.8796 0.366116 11.6653C0.131696 11.4509 0 11.1602 0 10.8571V5.14286C0 4.83975 0.131696 4.54906 0.366116 4.33474C0.600537 4.12041 0.918479 4 1.25 4H1.875V2.85714C1.875 2.09938 2.20424 1.37266 2.79029 0.836838C3.37634 0.30102 4.1712 0 5 0C5.41038 0 5.81674 0.0739022 6.19589 0.217487C6.57503 0.361072 6.91953 0.571528 7.20971 0.836838C7.49989 1.10215 7.73008 1.41712 7.88712 1.76376C8.04417 2.11041 8.125 2.48194 8.125 2.85714V4H8.75ZM5 1.14286C4.50272 1.14286 4.02581 1.32347 3.67417 1.64496C3.32254 1.96645 3.125 2.40249 3.125 2.85714V4H6.875V2.85714C6.875 2.40249 6.67746 1.96645 6.32583 1.64496C5.97419 1.32347 5.49728 1.14286 5 1.14286Z" fill="#E3E3E3"/>
</svg>
