<svg width="34" height="34" viewBox="0 0 34 34" fill="none" xmlns="http://www.w3.org/2000/svg">
<path d="M25.5 17C25.5 19.2543 24.6045 21.4163 23.0104 23.0104C21.4163 24.6045 19.2543 25.5 17 25.5C14.7457 25.5 12.5837 24.6045 10.9896 23.0104C9.39553 21.4163 8.5 19.2543 8.5 17C8.5 14.7457 9.39553 12.5837 10.9896 10.9896C12.5837 9.39553 14.7457 8.5 17 8.5C19.2543 8.5 21.4163 9.39553 23.0104 10.9896C24.6045 12.5837 25.5 14.7457 25.5 17Z" fill="#F17B3C"/>
<path fill-rule="evenodd" clip-rule="evenodd" d="M17.0002 1.77075C17.282 1.77075 17.5522 1.88269 17.7515 2.08195C17.9507 2.28121 18.0627 2.55146 18.0627 2.83325V4.24992C18.0627 4.53171 17.9507 4.80196 17.7515 5.00122C17.5522 5.20048 17.282 5.31242 17.0002 5.31242C16.7184 5.31242 16.4481 5.20048 16.2489 5.00122C16.0496 4.80196 15.9377 4.53171 15.9377 4.24992V2.83325C15.9377 2.55146 16.0496 2.28121 16.2489 2.08195C16.4481 1.88269 16.7184 1.77075 17.0002 1.77075ZM6.23208 6.23184C6.4313 6.03286 6.70135 5.9211 6.98291 5.9211C7.26448 5.9211 7.53453 6.03286 7.73375 6.23184L8.2905 6.78717C8.48414 6.98747 8.59136 7.25581 8.58907 7.53439C8.58678 7.81298 8.47516 8.07952 8.27826 8.27661C8.08136 8.4737 7.81492 8.58557 7.53634 8.58812C7.25775 8.59067 6.98931 8.4837 6.78883 8.29025L6.23208 7.7335C6.03311 7.53428 5.92135 7.26423 5.92135 6.98267C5.92135 6.70111 6.03311 6.43106 6.23208 6.23184ZM27.7682 6.23184C27.9672 6.43106 28.079 6.70111 28.079 6.98267C28.079 7.26423 27.9672 7.53428 27.7682 7.7335L27.2115 8.29025C27.0101 8.47793 26.7437 8.58011 26.4684 8.57525C26.1932 8.57039 25.9305 8.45889 25.7359 8.26422C25.5412 8.06955 25.4297 7.80692 25.4248 7.53166C25.42 7.2564 25.5222 6.99 25.7098 6.78859L26.2666 6.23184C26.4658 6.03286 26.7358 5.9211 27.0174 5.9211C27.299 5.9211 27.569 6.03286 27.7682 6.23184ZM1.771 16.9999C1.771 16.7181 1.88294 16.4479 2.0822 16.2486C2.28145 16.0494 2.5517 15.9374 2.8335 15.9374H4.25016C4.53196 15.9374 4.80221 16.0494 5.00146 16.2486C5.20072 16.4479 5.31266 16.7181 5.31266 16.9999C5.31266 17.2817 5.20072 17.552 5.00146 17.7512C4.80221 17.9505 4.53196 18.0624 4.25016 18.0624H2.8335C2.5517 18.0624 2.28145 17.9505 2.0822 17.7512C1.88294 17.552 1.771 17.2817 1.771 16.9999ZM28.6877 16.9999C28.6877 16.7181 28.7996 16.4479 28.9989 16.2486C29.1981 16.0494 29.4684 15.9374 29.7502 15.9374H31.1668C31.4486 15.9374 31.7189 16.0494 31.9181 16.2486C32.1174 16.4479 32.2293 16.7181 32.2293 16.9999C32.2293 17.2817 32.1174 17.552 31.9181 17.7512C31.7189 17.9505 31.4486 18.0624 31.1668 18.0624H29.7502C29.4684 18.0624 29.1981 17.9505 28.9989 17.7512C28.7996 17.552 28.6877 17.2817 28.6877 16.9999ZM25.7098 25.7096C25.9091 25.5106 26.1791 25.3989 26.4607 25.3989C26.7422 25.3989 27.0123 25.5106 27.2115 25.7096L27.7682 26.2663C27.8726 26.3636 27.9564 26.4809 28.0144 26.6112C28.0725 26.7416 28.1037 26.8823 28.1063 27.0249C28.1088 27.1676 28.0825 27.3093 28.0291 27.4416C27.9756 27.5739 27.8961 27.6941 27.7952 27.795C27.6943 27.8959 27.5741 27.9754 27.4418 28.0288C27.3095 28.0823 27.1678 28.1085 27.0252 28.106C26.8825 28.1035 26.7418 28.0723 26.6115 28.0142C26.4812 27.9561 26.3639 27.8724 26.2666 27.768L25.7098 27.2113C25.5109 27.012 25.3991 26.742 25.3991 26.4604C25.3991 26.1789 25.5109 25.9088 25.7098 25.7096ZM8.2905 25.7096C8.48947 25.9088 8.60123 26.1789 8.60123 26.4604C8.60123 26.742 8.48947 27.012 8.2905 27.2113L7.73375 27.768C7.63648 27.8724 7.51917 27.9561 7.38884 28.0142C7.25851 28.0723 7.11782 28.1035 6.97515 28.106C6.83249 28.1085 6.69078 28.0823 6.55848 28.0288C6.42618 27.9754 6.306 27.8959 6.20511 27.795C6.10422 27.6941 6.02468 27.5739 5.97124 27.4416C5.9178 27.3093 5.89156 27.1676 5.89407 27.0249C5.89659 26.8823 5.92782 26.7416 5.98589 26.6112C6.04396 26.4809 6.12769 26.3636 6.23208 26.2663L6.78741 25.7096C6.88608 25.6109 7.00324 25.5325 7.1322 25.4791C7.26115 25.4257 7.39937 25.3981 7.53895 25.3981C7.67854 25.3981 7.81676 25.4257 7.94571 25.4791C8.07467 25.5325 8.19183 25.6109 8.2905 25.7096ZM17.0002 28.6874C17.282 28.6874 17.5522 28.7994 17.7515 28.9986C17.9507 29.1979 18.0627 29.4681 18.0627 29.7499V31.1666C18.0627 31.4484 17.9507 31.7186 17.7515 31.9179C17.5522 32.1171 17.282 32.2291 17.0002 32.2291C16.7184 32.2291 16.4481 32.1171 16.2489 31.9179C16.0496 31.7186 15.9377 31.4484 15.9377 31.1666V29.7499C15.9377 29.4681 16.0496 29.1979 16.2489 28.9986C16.4481 28.7994 16.7184 28.6874 17.0002 28.6874Z" fill="#F17B3C"/>
</svg>
